<svg width="19" height="21" viewBox="0 0 19 21" fill="none" xmlns="http://www.w3.org/2000/svg">
<path fill-rule="evenodd" clip-rule="evenodd" d="M6.3016 8.68278H2.8984C2.39904 8.6784 1.91849 8.88584 1.56248 9.25945C1.20645 9.63306 1.00412 10.1423 1 10.675V18.215C1.00924 19.3241 1.85901 20.2153 2.8984 20.206H6.3016C6.80092 20.2105 7.28152 20.0031 7.63756 19.6294C7.9936 19.2558 8.19592 18.7466 8.2 18.2138V10.675C8.19592 10.1423 7.9936 9.63306 7.63756 9.25945C7.28152 8.88584 6.80092 8.6784 6.3016 8.68278Z" stroke="#6A7099" stroke-width="1.5" stroke-linecap="round" stroke-linejoin="round"/>
<path fill-rule="evenodd" clip-rule="evenodd" d="M6.3016 1.00077H2.8984C1.87991 0.970633 1.03071 1.82573 1 2.91235V4.21063C1.03071 5.29725 1.87991 6.15235 2.8984 6.1222H6.3016C7.32004 6.15235 8.16928 5.29725 8.2 4.21063V2.91235C8.16928 1.82573 7.32004 0.970633 6.3016 1.00077Z" stroke="#6A7099" stroke-width="1.5" stroke-linecap="round" stroke-linejoin="round"/>
<path fill-rule="evenodd" clip-rule="evenodd" d="M12.4984 12.5241H15.9004C16.4 12.5288 16.8808 12.3215 17.2371 11.9479C17.5934 11.5742 17.796 11.0649 17.8 10.5319V2.99307C17.796 2.46029 17.5936 1.95106 17.2376 1.57744C16.8816 1.20382 16.401 0.996402 15.9016 1.00083H12.4984C11.9991 0.996402 11.5185 1.20382 11.1625 1.57744C10.8064 1.95106 10.6041 2.46029 10.6 2.99307V10.5319C10.6041 11.0646 10.8064 11.5738 11.1625 11.9474C11.5185 12.321 11.9991 12.5285 12.4984 12.5241Z" stroke="#6A7099" stroke-width="1.5" stroke-linecap="round" stroke-linejoin="round"/>
<path fill-rule="evenodd" clip-rule="evenodd" d="M12.4984 20.2061H15.9004C16.9194 20.237 17.7693 19.3817 17.8 18.2946V16.9963C17.7693 15.9096 16.9201 15.0546 15.9016 15.0847H12.4984C11.48 15.0546 10.6308 15.9096 10.6 16.9963V18.2933C10.63 19.3804 11.4795 20.2362 12.4984 20.2061Z" stroke="#6A7099" stroke-width="1.5" stroke-linecap="round" stroke-linejoin="round"/>
</svg>
